<svg xmlns="http://www.w3.org/2000/svg" width="159" height="60" viewBox="0 0 159 60"><g><g><path fill="#ea4335" d="M96.88 38.53c-.062 5.125-1.834 9.354-5.317 12.689-3.482 3.334-7.72 5-12.712 5-5.053 0-9.322-1.666-12.804-5-3.482-3.335-5.223-7.564-5.223-12.688 0-5.249 1.71-9.601 5.13-13.059 3.421-3.458 7.72-5.186 12.898-5.186 5.115 0 9.399 1.728 12.85 5.186 3.452 3.458 5.177 7.81 5.177 13.059 0 0 .062-5.125 0 0zm-2.59-15.466c-4.375-3.951-9.522-5.927-15.439-5.927-5.978 0-11.155 1.976-15.531 5.927-4.376 3.952-6.533 9.107-6.472 15.467 0 6.112 2.204 11.113 6.61 15.003 4.407 3.89 9.538 5.834 15.394 5.834 5.793 0 10.909-1.944 15.346-5.834 4.438-3.89 6.657-8.891 6.657-15.003 0-6.36-2.188-11.515-6.564-15.467z"/></g><g><path fill="#fbbc05" d="M79.472 53.232c4.154.47 8.82-2.57 10.596-4.375 5.739-5.836 5.708-15.422-.135-21.182-1.96-1.932-6.175-4.665-10.467-4.25z"/></g><g><path fill="#0879c9" d="M5.626 59.385H4.088c-1.916 0-3.438-1.581-3.438-3.444V30.679c0-1.179.218-2.28.646-3.317a8.752 8.752 0 0 1 1.792-2.724 8.652 8.652 0 0 1 2.672-1.842 8.145 8.145 0 0 1 3.303-.67c1.13 0 2.166.194 3.117.585.95.39 1.815.913 2.594 1.584.771.671 1.457 1.46 2.049 2.372a16.662 16.662 0 0 1 1.511 2.888l7.806 19.253 8.53-20.283c.764-2.084 1.855-3.676 3.28-4.769 1.418-1.084 3.163-1.63 5.236-1.63 1.308 0 2.493.265 3.544.787a8.618 8.618 0 0 1 2.72 2.115 9.405 9.405 0 0 1 1.729 3.068c.405 1.154.607 2.364.607 3.613v24.232c0 1.86-1.458 3.444-3.437 3.444H46.81a3.436 3.436 0 0 1-3.438-3.444V39.213c0-.192.016-.38.046-.564v-7.4l-8.265 18.136a54.565 54.565 0 0 1-1.62 3.301c-.53 1-1.13 1.85-1.8 2.56a7.238 7.238 0 0 1-2.306 1.647c-.873.39-1.917.585-3.155.585-1.122 0-2.143-.234-3.054-.694a9.616 9.616 0 0 1-2.493-1.834 13.92 13.92 0 0 1-1.995-2.591 31.01 31.01 0 0 1-1.589-3.02l-8.125-17.77v7.08c.03.184.046.372.046.564v16.728c0 1.879-1.428 3.444-3.437 3.444"/></g><g><path fill="#34a853" d="M72.215 3.32c2.798 2.527 6.324 8.384 6.738 11.792-4.67-.117-11.035-1.817-14.112-3.925-2.544-1.743-6.92-7.386-7.84-10.032zm11.914 3.681c3.014-2.323 6.387-2 10.467-1.545-.309 1.017-1.894 3.311-2.445 4.013-2.94 3.74-7.42 5.63-12.61 5.625zm71.453 40.597v.056a3.705 3.705 0 0 1 3.05 3.637v1.652a3.705 3.705 0 0 1-3.05 3.637v.055h-3.179c-.314 1.86-2.177 3.288-4.429 3.288-2.252 0-4.115-1.429-4.429-3.288h-21.193c-.314 1.86-2.177 3.288-4.429 3.288-2.472 0-4.476-1.72-4.476-3.843 0-.194.017-.384.05-.57a11.708 11.708 0 0 1-2.881-2.074 11.801 11.801 0 0 1-2.4-3.395 9.338 9.338 0 0 1-.911-4.035V25.677a3.7 3.7 0 0 1 3.686-3.692h1.65a3.7 3.7 0 0 1 3.685 3.683v17.28c0 1.11-.1 2.98.75 3.865.851.884 2.654.784 3.607.785z"/></g><g><path fill="#666" d="M71.96 30.926c1.994-2.005 4.5 3.246 5.032 5.047zm.097 12.301c-2.15-2.066 3.377-4.637 5.081-5.05zm-2.543-6.222c0-3.057 5.74-.527 7.062-.003z"/></g></g></svg>